<?xml version="1.0" encoding="utf-8"?>
<!-- Generator: Adobe Illustrator 16.0.3, SVG Export Plug-In . SVG Version: 6.00 Build 0)  -->
<!DOCTYPE svg PUBLIC "-//W3C//DTD SVG 1.1//EN" "http://www.w3.org/Graphics/SVG/1.1/DTD/svg11.dtd">
<svg version="1.1" id="Layer_1" xmlns="http://www.w3.org/2000/svg" xmlns:xlink="http://www.w3.org/1999/xlink" x="0px" y="0px"
	 width="20px" height="20px" viewBox="0 0 20 20" enable-background="new 0 0 20 20" xml:space="preserve">
<g>
	<g>
		<path fill="#FFFFFF" d="M11.905,10.376c0,1.01-0.818,1.828-1.828,1.828H9.163c-1.01,0-1.829-0.818-1.829-1.828V9.462
			c0-1.01,0.818-1.829,1.829-1.829h0.914c1.01,0,1.828,0.818,1.828,1.829V10.376z"/>
	</g>
	<g>
		<path fill="#FFFFFF" d="M11.905,17.393c0,1.009-0.818,1.829-1.828,1.829H9.163c-1.01,0-1.829-0.819-1.829-1.829v-0.914
			c0-1.01,0.818-1.829,1.829-1.829h0.914c1.01,0,1.828,0.819,1.828,1.829V17.393z"/>
	</g>
	<g>
		<path fill="#FFFFFF" d="M19.522,10.376c0,1.01-0.818,1.828-1.828,1.828H16.78c-1.01,0-1.828-0.818-1.828-1.828V9.462
			c0-1.01,0.818-1.829,1.828-1.829h0.915c1.01,0,1.828,0.818,1.828,1.829V10.376z"/>
	</g>
	<g>
		<path fill="#FFFFFF" d="M5.049,17.393c0,1.009-0.818,1.829-1.828,1.829H2.306c-1.01,0-1.828-0.82-1.828-1.829v-0.914
			c0-1.01,0.818-1.829,1.828-1.829h0.915c1.01,0,1.828,0.819,1.828,1.829V17.393z"/>
	</g>
	<g>
		<path fill="#FFFFFF" d="M11.905,3.521c0,1.01-0.818,1.828-1.828,1.828H9.163c-1.01,0-1.829-0.818-1.829-1.828V2.606
			c0-1.01,0.818-1.828,1.829-1.828h0.914c1.01,0,1.828,0.818,1.828,1.828V3.521z"/>
	</g>
	<g>
		<rect x="9.143" y="3.063" fill="#FFFFFF" width="0.953" height="6.856"/>
	</g>
	<g>
		<rect x="9.143" y="9.919" fill="#FFFFFF" width="0.953" height="6.856"/>
	</g>
	<g>
		<path fill="#FFFFFF" d="M3.24,16.936H2.287v-3.588c0-0.263,0.214-0.476,0.477-0.476H9.62v0.952H3.24V16.936z"/>
	</g>
	<g>
		<path fill="#FFFFFF" d="M17.714,10.849h-0.953V6.968H9.62V6.015h7.618c0.263,0,0.477,0.213,0.477,0.476V10.849z"/>
	</g>
</g>
</svg>
